<?xml version="1.0" encoding="iso-8859-1"?>
<!-- Uploaded to: SVG Repo, www.svgrepo.com, Generator: SVG Repo Mixer Tools -->
<svg height="800px" width="800px" version="1.1" id="Layer_1" xmlns="http://www.w3.org/2000/svg" xmlns:xlink="http://www.w3.org/1999/xlink" 
	 viewBox="0 0 512 512" xml:space="preserve">
<path style="fill:#FFDC64;" d="M322.434,174.294c0,0-29.781-2.291-48.107,30.545c0,0-18.327-27.642-18.327-86.287
	c-64.143,54.98-93.832,159.878-93.832,199.394c0,40.404,25.589,74.743,61.402,87.957c-8.271-9.263-13.386-22.048-13.386-36.169
	c0-51.207,45.817-95.788,45.817-95.788s45.817,44.581,45.817,95.788c0,13.676-4.827,26.068-12.643,35.254
	c-0.001,0.001,0,0.002,0.001,0.002c20.965-8.426,38.55-23.77,48.444-40.722c9.786-16.768,12.212-34.578,12.212-46.322
	C349.832,259.299,310.98,246.837,322.434,174.294z"/>
<path style="fill:#FFB446;" d="M322.434,174.294c0,0-29.781-2.291-48.107,30.545c0,0-18.327-27.642-18.327-86.287
	c-64.143,54.98-93.832,159.878-93.832,199.394c0,5.566,0.646,10.959,1.577,16.256c-7.779-75.145,78.509-147.689,78.509-147.689
	c6.586,41.426,31.69,68.725,31.69,68.725s9.163-16.036,24.054-27.108c0,0,67.198,88.961,32.074,146.85
	c2.825-3.469,5.402-7.037,7.547-10.713c9.786-16.768,12.212-34.578,12.212-46.322C349.832,259.299,310.98,246.837,322.434,174.294z"
	/>
<path style="fill:#FF5050;" d="M256,8.591C119.579,8.591,8.591,119.579,8.591,256S119.579,503.409,256,503.409
	S503.409,392.421,503.409,256S392.421,8.591,256,8.591z M45.244,256c0-51.522,18.611-98.761,49.426-135.415l296.745,296.745
	c-36.653,30.815-83.892,49.426-135.415,49.426C139.785,466.756,45.244,372.21,45.244,256z M417.33,391.415L120.585,94.67
	C157.238,63.855,204.477,45.244,256,45.244c116.215,0,210.756,94.546,210.756,210.756
	C466.756,307.522,448.145,354.761,417.33,391.415z"/>
<path style="fill:#C84146;" d="M201.556,459.588C111.653,435.522,45.244,353.387,45.244,256c0-51.522,18.611-98.761,49.426-135.415
	l56.936,56.936c5.469-11.49,11.789-22.498,18.896-32.934L120.585,94.67C157.238,63.855,204.477,45.244,256,45.244
	c13.7,0,27.084,1.358,40.063,3.867c23.121-7.821,47.753-12.301,73.343-12.886C335.407,18.61,296.863,8.591,256,8.591
	C119.579,8.591,8.591,119.579,8.591,256S119.579,503.409,256,503.409c1.917,0,3.81-0.101,5.717-0.144
	C239.497,491.751,219.222,477.001,201.556,459.588z"/>
<path d="M381.226,394.991c-3.355-3.355-8.794-3.354-12.148,0c-3.355,3.355-3.355,8.794,0,12.149l9.55,9.552
	C343.52,443.499,300.333,458.166,256,458.166c-111.474,0-202.166-90.69-202.166-202.166c0-44.333,14.667-87.519,41.473-122.628
	l81.431,81.431c-15.362,34.063-23.161,68.733-23.161,103.141c0,56.476,45.947,102.423,102.423,102.423
	c33.207,0,64.269-16.217,83.374-42.929l3.749,3.749c3.355,3.355,8.794,3.355,12.148,0c3.355-3.355,3.355-8.793,0-12.148
	L100.677,114.443c-1.702-1.702-4.051-2.614-6.446-2.508c-2.405,0.104-4.656,1.213-6.205,3.056
	C54.897,154.414,36.653,204.492,36.653,256c0,120.949,98.399,219.347,219.347,219.347c51.508,0,101.586-18.244,141.01-51.372
	c1.843-1.549,2.952-3.8,3.056-6.205c0.104-2.405-0.806-4.743-2.508-6.446L381.226,394.991z M170.758,317.944
	c0-29.951,6.407-60.204,19.03-90.093l85.737,85.737c0.032,0.056,0.058,0.113,0.092,0.168c11.686,19.092,17.61,36.656,17.61,52.203
	c0,20.527-16.7,37.226-37.226,37.226c-0.641,0-1.275-0.034-1.913-0.048c-19.642-1-35.313-17.293-35.313-37.178
	c0-16.655,7.12-36.334,20.591-56.909c2.599-3.97,1.488-9.294-2.482-11.893c-3.968-2.598-9.294-1.488-11.893,2.482
	c-15.525,23.714-23.397,46.026-23.397,66.319c0,7.349,1.472,14.357,4.125,20.758C184.542,371.193,170.758,346.153,170.758,317.944z
	 M306.272,386.743c2.659-6.407,4.135-13.425,4.135-20.784c0-6.42-0.813-13.058-2.392-19.881l19.009,19.009
	C321.38,373.572,314.323,380.868,306.272,386.743z"/>
<path d="M256,36.653c-51.508,0-101.586,18.244-141.01,51.372c-1.843,1.549-2.952,3.8-3.056,6.205
	c-0.104,2.405,0.806,4.744,2.508,6.446l25.505,25.505c3.355,3.355,8.794,3.355,12.148,0c3.355-3.355,3.355-8.793,0-12.148
	l-18.724-18.725C168.481,68.501,211.667,53.834,256,53.834c111.474,0,202.166,90.69,202.166,202.166
	c0,44.333-14.667,87.519-41.473,122.628l-58.318-58.318c0.018-0.79,0.048-1.581,0.048-2.366c0-27.405-7.937-45.703-15.611-63.399
	c-9.304-21.452-18.092-41.714-11.904-78.839c0.396-2.377-0.225-4.812-1.711-6.709c-1.486-1.898-3.701-3.083-6.104-3.269
	c-1.25-0.096-27.015-1.742-47.381,22.065c-0.858-2.232-1.755-4.77-2.649-7.612c-3.865-12.286-8.471-32.95-8.471-61.631
	c0-3.371-1.971-6.43-5.041-7.823c-3.071-1.394-6.67-0.861-9.207,1.358c-1.005,0.879-23.145,20.431-46.136,54.058l-26.152-26.152
	c-3.355-3.355-8.794-3.355-12.148,0c-3.355,3.355-3.355,8.794,0,12.148l245.416,245.416c1.614,1.614,3.8,2.516,6.074,2.516
	c0.124,0,0.249-0.002,0.372-0.008c2.405-0.104,4.656-1.213,6.205-3.056c33.129-39.423,51.373-89.5,51.373-141.008
	C475.347,135.051,376.948,36.653,256,36.653z M248.13,138.546c3.469,47.022,18.324,69.965,19.037,71.04
	c1.656,2.498,4.507,3.956,7.488,3.837c2.994-0.115,5.713-1.781,7.174-4.397c9.421-16.88,22.096-22.911,30.626-25.042
	c-3.648,35.33,5.613,56.687,14.596,77.398c5.551,12.799,10.859,25.066,13.086,40.691L216.582,178.518
	C228.083,161.348,239.611,147.735,248.13,138.546z"/>
<path d="M437.02,74.981C388.668,26.629,324.38,0,256,0S123.332,26.629,74.98,74.981C26.629,123.332,0,187.62,0,256
	s26.629,132.668,74.98,181.02C123.332,485.371,187.62,512,256,512s132.668-26.629,181.02-74.98C485.371,388.668,512,324.38,512,256
	S485.371,123.332,437.02,74.981z M256,494.819C124.315,494.819,17.181,387.685,17.181,256S124.315,17.181,256,17.181
	S494.819,124.315,494.819,256S387.685,494.819,256,494.819z"/>
</svg>